<svg width="32" height="32" viewBox="0 0 32 32" fill="none" xmlns="http://www.w3.org/2000/svg">
<mask id="mask0" mask-type="alpha" maskUnits="userSpaceOnUse" x="0" y="0" width="32" height="32">
<path d="M32 16C32 7.16344 24.8366 0 16 0C7.16344 0 0 7.16344 0 16C0 24.8366 7.16344 32 16 32C24.8366 32 32 24.8366 32 16Z" fill="white"/>
</mask>
<g mask="url(#mask0)">
<path d="M32 16C32 7.16344 24.8366 0 16 0C7.16344 0 0 7.16344 0 16C0 24.8366 7.16344 32 16 32C24.8366 32 32 24.8366 32 16Z" fill="#C7DCF0"/>
<path d="M38.6599 26.6067L33.1385 6.00024C32.3761 3.15508 29.4516 1.46664 26.6065 2.229L6.00006 7.75047C3.15491 8.51283 1.46647 11.4373 2.22883 14.2824L7.7503 34.8889C8.51266 37.734 11.4371 39.4225 14.2823 38.6601L34.8887 33.1386C37.7338 32.3763 39.4223 29.4518 38.6599 26.6067Z" fill="#FB6B41"/>
<path d="M14.1616 16.4983C14.0845 17.379 14.4771 18.2644 15.253 18.9598C16.0288 19.6552 17.1243 20.1036 18.2986 20.2063C19.4729 20.309 20.6296 20.0577 21.5144 19.5076C22.3992 18.9575 22.9396 18.1537 23.0167 17.273" fill="black"/>
<path d="M16.6853 13.1499C16.7281 12.6609 16.4654 12.2384 16.0986 12.2063C15.7318 12.1742 15.3998 12.5446 15.357 13.0337C15.3142 13.5228 15.5769 13.9452 15.9437 13.9773C16.3105 14.0094 16.6425 13.639 16.6853 13.1499Z" fill="black"/>
<path d="M21.9982 13.6146C22.041 13.1256 21.7784 12.7031 21.4116 12.671C21.0448 12.6389 20.7128 13.0094 20.67 13.4984C20.6272 13.9875 20.8898 14.4099 21.2566 14.442C21.6234 14.4741 21.9554 14.1037 21.9982 13.6146Z" fill="black"/>
</g>
</svg>
